<svg xmlns="http://www.w3.org/2000/svg" width="42.255" height="38.03" viewBox="0 0 42.255 38.03">
  <g id="OpenSea-Full-Logo_dark_" data-name="OpenSea-Full-Logo (dark)" transform="translate(-21 -20)">
    <path id="Path_1096" data-name="Path 1096" d="M24.645,45.109l.148-.232,8.916-13.948a.3.3,0,0,1,.535.039c1.49,3.338,2.775,7.49,2.173,10.074a15.746,15.746,0,0,1-1.754,3.835c-.1.194-.215.384-.335.567a.3.3,0,0,1-.254.134H24.906A.3.3,0,0,1,24.645,45.109Z" transform="translate(-1.131 -3.393)" fill="#fff"/>
    <path id="Path_1097" data-name="Path 1097" d="M63.255,44.307v2.208a.317.317,0,0,1-.19.289,10.978,10.978,0,0,0-4.035,2.747c-2.507,3.49-4.423,8.479-8.7,8.479H32.462A11.48,11.48,0,0,1,21,46.529v-.2a.307.307,0,0,1,.306-.306h9.958a.339.339,0,0,1,.324.377,3.4,3.4,0,0,0,.356,1.912,3.5,3.5,0,0,0,3.141,1.951h4.93V46.41H35.141a.314.314,0,0,1-.253-.493c.053-.081.113-.165.176-.261.461-.655,1.12-1.673,1.775-2.831a22.173,22.173,0,0,0,1.229-2.454c.07-.151.127-.306.183-.458.1-.268.194-.518.264-.768.07-.211.127-.433.183-.641a9.918,9.918,0,0,0,.236-2.247c0-.306-.014-.627-.042-.933-.014-.335-.056-.669-.1-1-.028-.3-.081-.588-.137-.894-.07-.447-.169-.891-.282-1.338l-.039-.169c-.085-.306-.155-.6-.253-.9-.278-.961-.6-1.9-.937-2.775-.123-.349-.264-.683-.4-1.018-.208-.5-.419-.961-.613-1.394-.1-.2-.183-.377-.268-.56-.1-.208-.194-.416-.292-.613-.07-.151-.151-.292-.208-.433l-.6-1.113a.2.2,0,0,1,.222-.285l3.768,1.021h.011c.007,0,.011,0,.014,0l.5.137.546.155.2.056v-2.24A1.947,1.947,0,0,1,41.952,20a1.912,1.912,0,0,1,1.37.574,1.969,1.969,0,0,1,.567,1.384v3.324l.4.113a.321.321,0,0,1,.092.046c.1.074.239.183.419.317.141.113.292.25.475.391.363.292.8.669,1.271,1.1.127.109.25.222.363.335.613.57,1.3,1.239,1.954,1.979.183.208.363.419.546.641s.377.447.546.669c.222.3.461.6.669.923.1.151.211.306.306.458.268.4.5.824.729,1.243.1.194.194.4.278.613a8.96,8.96,0,0,1,.574,1.7,2.127,2.127,0,0,1,.081.377v.028a3.224,3.224,0,0,1,.07.532,5.688,5.688,0,0,1-.1,1.757,6.4,6.4,0,0,1-.208.736c-.085.239-.169.489-.278.725a9.836,9.836,0,0,1-.757,1.437c-.1.169-.208.349-.32.518s-.25.349-.363.514c-.155.211-.32.433-.489.63a6.688,6.688,0,0,1-.475.6c-.236.278-.461.542-.7.8-.141.165-.292.335-.447.486-.151.169-.306.32-.447.461-.236.236-.433.419-.6.57l-.387.356a.316.316,0,0,1-.208.077h-3v3.849h3.775a3.531,3.531,0,0,0,2.3-.849,27.537,27.537,0,0,0,2.335-2.3.293.293,0,0,1,.144-.088l10.426-3.014A.308.308,0,0,1,63.255,44.307Z" fill="#fff"/>
  </g>
</svg>
