<svg id="Dashed_line" data-name="Dashed line" xmlns="http://www.w3.org/2000/svg" width="2.952" height="667.9" viewBox="0 0 2.952 667.9">
  <path id="Rounded_Rectangle_1" data-name="Rounded Rectangle 1" d="M0,52.659V45.274a1.476,1.476,0,1,1,2.952,0v7.385a1.476,1.476,0,1,1-2.952,0Zm0-14.7V30.574a1.476,1.476,0,1,1,2.952,0v7.385a1.476,1.476,0,1,1-2.952,0ZM0,23.41V16.024a1.476,1.476,0,0,1,2.952,0V23.41A1.476,1.476,0,0,1,0,23.41ZM0,8.861V1.476a1.476,1.476,0,0,1,2.952,0V8.861A1.476,1.476,0,0,1,0,8.861Z" fill="#3d6ca3"/>
  <path id="Rounded_Rectangle_1-2" data-name="Rounded Rectangle 1" d="M0,52.663V45.27a1.476,1.476,0,1,1,2.952,0v7.393a1.476,1.476,0,1,1-2.952,0Zm0-14.7V30.578a1.476,1.476,0,1,1,2.952,0v7.381a1.476,1.476,0,1,1-2.952,0ZM0,23.413V16.021a1.476,1.476,0,1,1,2.952,0v7.393a1.476,1.476,0,0,1-2.952,0ZM0,8.858V1.476a1.476,1.476,0,0,1,2.952,0V8.858A1.476,1.476,0,0,1,0,8.858Z" transform="translate(0 102.601)" fill="#3d6ca3"/>
  <path id="Rounded_Rectangle_1-3" data-name="Rounded Rectangle 1" d="M0,52.663V45.27a1.476,1.476,0,0,1,2.952,0v7.393a1.476,1.476,0,1,1-2.952,0Zm0-14.7V30.578a1.476,1.476,0,0,1,2.952,0v7.381a1.476,1.476,0,1,1-2.952,0ZM0,23.413V16.022a1.476,1.476,0,1,1,2.952,0v7.392a1.476,1.476,0,1,1-2.952,0ZM0,8.858V1.476a1.476,1.476,0,0,1,2.952,0V8.858A1.476,1.476,0,0,1,0,8.858Z" transform="translate(0 204.833)" fill="#3d6ca3"/>
  <path id="Rounded_Rectangle_1-4" data-name="Rounded Rectangle 1" d="M0,52.663V45.27a1.476,1.476,0,0,1,2.952,0v7.393a1.476,1.476,0,1,1-2.952,0Zm0-14.7V30.578a1.476,1.476,0,0,1,2.952,0v7.381a1.476,1.476,0,1,1-2.952,0ZM0,23.413V16.021a1.476,1.476,0,1,1,2.952,0v7.393a1.476,1.476,0,1,1-2.952,0ZM0,8.858V1.476a1.476,1.476,0,0,1,2.952,0V8.858A1.476,1.476,0,0,1,0,8.858Z" transform="translate(0 307.065)" fill="#3d6ca3"/>
  <path id="Rounded_Rectangle_1-5" data-name="Rounded Rectangle 1" d="M0,52.663V45.27a1.476,1.476,0,0,1,2.952,0v7.393a1.476,1.476,0,1,1-2.952,0Zm0-14.7V30.578a1.476,1.476,0,1,1,2.952,0v7.381a1.476,1.476,0,1,1-2.952,0ZM0,23.413V16.021a1.476,1.476,0,1,1,2.952,0v7.393a1.476,1.476,0,0,1-2.952,0ZM0,8.858V1.476a1.476,1.476,0,0,1,2.952,0V8.858A1.476,1.476,0,0,1,0,8.858Z" transform="translate(0 408.559)" fill="#3d6ca3"/>
  <path id="Rounded_Rectangle_1-6" data-name="Rounded Rectangle 1" d="M0,52.663V45.27a1.476,1.476,0,0,1,2.952,0v7.393a1.476,1.476,0,1,1-2.952,0Zm0-14.7V30.578a1.476,1.476,0,1,1,2.952,0v7.381a1.476,1.476,0,1,1-2.952,0ZM0,23.413V16.021a1.476,1.476,0,1,1,2.952,0v7.393a1.476,1.476,0,0,1-2.952,0ZM0,8.858V1.476a1.476,1.476,0,0,1,2.952,0V8.858A1.476,1.476,0,0,1,0,8.858Z" transform="translate(0 511.529)" fill="#3d6ca3"/>
  <path id="Rounded_Rectangle_1-7" data-name="Rounded Rectangle 1" d="M0,52.663V45.27a1.476,1.476,0,0,1,2.952,0v7.393a1.476,1.476,0,1,1-2.952,0Zm0-14.7V30.578a1.476,1.476,0,0,1,2.952,0v7.382a1.476,1.476,0,1,1-2.952,0ZM0,23.413V16.022a1.476,1.476,0,1,1,2.952,0v7.392a1.476,1.476,0,1,1-2.952,0ZM0,8.858V1.477a1.476,1.476,0,1,1,2.952,0V8.858A1.476,1.476,0,0,1,0,8.858Z" transform="translate(0 613.761)" fill="#3d6ca3"/>
</svg>
